<?xml version="1.0" encoding="UTF-8"?>
<svg width="100pt" height="100pt" version="1.1" viewBox="0 0 100 100" xmlns="http://www.w3.org/2000/svg">
 <path d="m98.188 90.262-25.359-25.547c-0.94922-0.95703-1.0469-2.4336-0.30859-3.5664 10.395-15.945 7.9727-37.875-7.3672-50.973-14.758-12.602-37.227-12.168-51.523 0.95703-16.414 15.066-16.828 40.715-1.2383 56.312 13.297 13.305 33.871 14.926 48.984 4.9297 1.1367-0.75 2.6211-0.65234 3.5781 0.3125l25.301 25.488c1.0938 1.1016 2.8711 1.1016 3.9688 0.007813l3.9609-3.9609c1.0859-1.0977 1.0898-2.8672 0.003906-3.9609zm-77.879-30.742c-10.824-10.832-10.82-28.449 0-39.273 10.816-10.828 28.422-10.828 39.242 0 10.82 10.828 10.82 28.445 0 39.273-10.82 10.828-28.422 10.832-39.242 0z" fill="#00adcd"/>
</svg>
